<svg width="16" height="16" viewBox="0 0 16 16" version="1.1" xmlns="http://www.w3.org/2000/svg" xmlns:xlink="http://www.w3.org/1999/xlink" xml:space="preserve" xmlns:serif="http://www.serif.com/" style="fill-rule:evenodd;clip-rule:evenodd;stroke-linejoin:round;stroke-miterlimit:2;"><g transform="matrix(1,0,0,1,-2,-3)"><path d="M16,4L4,4C2.899,4 2,4.9 2,6L2,13C2,14.1 2.899,15 4,15L8,15L12,18L12,15L16,15C17.1,15 18,14.1 18,13L18,6C18,4.9 17.1,4 16,4ZM6,10.6C5.393,10.6 4.9,10.108 4.9,9.5C4.9,8.892 5.392,8.4 6,8.4C6.608,8.4 7.1,8.892 7.1,9.5C7.1,10.107 6.607,10.6 6,10.6ZM10,10.6C9.393,10.6 8.9,10.108 8.9,9.5C8.9,8.892 9.392,8.4 10,8.4C10.608,8.4 11.1,8.892 11.1,9.5C11.1,10.107 10.607,10.6 10,10.6ZM14,10.6C13.393,10.6 12.9,10.108 12.9,9.5C12.9,8.892 13.392,8.4 14,8.4C14.608,8.4 15.1,8.892 15.1,9.5C15.1,10.107 14.607,10.6 14,10.6Z" style="fill:rgb(244,124,0);fill-rule:nonzero;"/></g></svg>